<?xml version="1.0" encoding="UTF-8" standalone="no"?>
<!-- Created with Inkscape (http://www.inkscape.org/) -->

<svg
   version="1.1"
   id="svg1"
   width="1440"
   height="928.10669"
   viewBox="0 0 1440 928.10669"
   sodipodi:docname="Safety Links logo-01.eps"
   xmlns:inkscape="http://www.inkscape.org/namespaces/inkscape"
   xmlns:sodipodi="http://sodipodi.sourceforge.net/DTD/sodipodi-0.dtd"
   xmlns="http://www.w3.org/2000/svg"
   xmlns:svg="http://www.w3.org/2000/svg">
  <defs
     id="defs1" />
  <sodipodi:namedview
     id="namedview1"
     pagecolor="#ffffff"
     bordercolor="#000000"
     borderopacity="0.25"
     inkscape:showpageshadow="2"
     inkscape:pageopacity="0.0"
     inkscape:pagecheckerboard="0"
     inkscape:deskcolor="#d1d1d1">
    <inkscape:page
       x="0"
       y="0"
       inkscape:label="1"
       id="page1"
       width="1440"
       height="928.10669"
       margin="0"
       bleed="0" />
  </sodipodi:namedview>
  <g
     id="g1"
     inkscape:groupmode="layer"
     inkscape:label="1">
    <g
       id="group-R5">
      <path
         id="path2"
         d="m 2407.1,2809.42 h -93.74 v 1724.64 h 93.74 V 2809.42"
         style="fill:#b6b4b5;fill-opacity:1;fill-rule:nonzero;stroke:none"
         transform="matrix(0.13333333,0,0,-0.13333333,0,928.10667)" />
      <path
         id="path3"
         d="m 2046.57,3523.92 c -36.85,0 -66.82,29.81 -66.82,66.67 0,36.85 29.97,66.66 66.82,66.66 36.7,0 66.67,-29.81 66.67,-66.66 0,-36.86 -29.97,-66.67 -66.67,-66.67 z m -909.07,1219 v -2304.5 l 1046.72,363.11 V 4541.17 L 1137.5,4742.92"
         style="fill:#3c3b3d;fill-opacity:1;fill-rule:nonzero;stroke:none"
         transform="matrix(0.13333333,0,0,-0.13333333,0,928.10667)" />
      <path
         id="path4"
         d="m 2718.01,3523.92 c -36.86,0 -66.67,29.81 -66.67,66.67 0,36.85 29.81,66.66 66.67,66.66 36.85,0 66.66,-29.81 66.66,-66.66 0,-36.86 -29.81,-66.67 -66.66,-66.67 z M 2547.67,4541.17 V 2801.53 l 1046.89,-363.11 v 2304.5 L 2547.67,4541.17"
         style="fill:#80cc28;fill-opacity:1;fill-rule:nonzero;stroke:none"
         transform="matrix(0.13333333,0,0,-0.13333333,0,928.10667)" />
      <path
         id="path5"
         d="m 2608.9,2474.4 c -1.17,-3.97 -3.91,-7.48 -7.68,-9.53 -23.61,-12.92 -32.21,-42.31 -19.21,-65.66 4.04,-7.79 0.9,-17.51 -6.97,-21.81 -7.71,-3.78 -16.97,-1.07 -21.44,6.27 -21.34,39.01 -7.01,87.98 32.08,109.59 7.87,4.32 17.66,1.44 21.97,-6.42 1.79,-3.69 2.49,-8.2 1.25,-12.44 v 0"
         style="fill:#80cc28;fill-opacity:1;fill-rule:nonzero;stroke:none"
         transform="matrix(0.13333333,0,0,-0.13333333,0,928.10667)" />
      <path
         id="path6"
         d="m 2577.81,2531.21 c -1.24,-4.24 -3.91,-7.48 -7.67,-9.54 -54.76,-29.96 -74.82,-98.52 -44.86,-153.28 v 0 c 4.04,-7.79 0.91,-17.51 -6.96,-21.81 -7.72,-3.78 -16.98,-1.07 -21.45,6.27 -38.57,70.49 -12.77,158.65 57.72,197.22 7.88,4.31 17.67,1.44 21.98,-6.43 1.98,-4.03 2.4,-8.46 1.24,-12.43"
         style="fill:#80cc28;fill-opacity:1;fill-rule:nonzero;stroke:none"
         transform="matrix(0.13333333,0,0,-0.13333333,0,928.10667)" />
      <path
         id="path7"
         d="m 2546.91,2587.67 c -1.24,-4.23 -3.91,-7.48 -7.67,-9.54 -85.9,-47 -117.5,-155.01 -70.5,-240.9 4.3,-7.87 1.44,-17.67 -6.44,-21.97 -7.87,-4.31 -17.66,-1.44 -21.97,6.43 v 0 c -55.61,101.63 -18.27,229.23 83.37,284.85 v 0 c 7.87,4.3 17.66,1.44 21.97,-6.43 2.06,-3.77 2.48,-8.2 1.24,-12.44 v 0"
         style="fill:#80cc28;fill-opacity:1;fill-rule:nonzero;stroke:none"
         transform="matrix(0.13333333,0,0,-0.13333333,0,928.10667)" />
      <path
         id="path8"
         d="m 1590.29,4760.14 -141.18,81.5 141.18,81.51 -0.02,-39.29 -73.12,-42.22 72.81,-42.03 0.33,-39.47"
         style="fill:#80cc28;fill-opacity:1;fill-rule:nonzero;stroke:none"
         transform="matrix(0.13333333,0,0,-0.13333333,0,928.10667)" />
      <path
         id="path9"
         d="m 1731.46,4760.14 -141.17,81.5 141.17,81.51 -0.01,-39.29 -73.12,-42.22 72.8,-42.03 0.33,-39.47"
         style="fill:#80cc28;fill-opacity:1;fill-rule:nonzero;stroke:none"
         transform="matrix(0.13333333,0,0,-0.13333333,0,928.10667)" />
      <path
         id="path10"
         d="m 1872.64,4760.14 -141.18,81.5 141.18,81.51 -0.02,-39.29 -73.12,-42.22 72.8,-42.03 0.34,-39.47"
         style="fill:#80cc28;fill-opacity:1;fill-rule:nonzero;stroke:none"
         transform="matrix(0.13333333,0,0,-0.13333333,0,928.10667)" />
      <path
         id="path11"
         d="m 3141.73,4760.14 141.17,81.5 -141.17,81.51 0.01,-39.29 73.12,-42.22 -72.8,-42.03 -0.33,-39.47"
         style="fill:#3c3b3d;fill-opacity:1;fill-rule:nonzero;stroke:none"
         transform="matrix(0.13333333,0,0,-0.13333333,0,928.10667)" />
      <path
         id="path12"
         d="m 3000.55,4760.14 141.18,81.5 -141.18,81.51 0.02,-39.29 73.12,-42.22 -72.81,-42.03 -0.33,-39.47"
         style="fill:#3c3b3d;fill-opacity:1;fill-rule:nonzero;stroke:none"
         transform="matrix(0.13333333,0,0,-0.13333333,0,928.10667)" />
      <path
         id="path13"
         d="m 2859.37,4760.14 141.18,81.5 -141.18,81.51 0.02,-39.29 73.12,-42.22 -72.8,-42.03 -0.34,-39.47"
         style="fill:#3c3b3d;fill-opacity:1;fill-rule:nonzero;stroke:none"
         transform="matrix(0.13333333,0,0,-0.13333333,0,928.10667)" />
      <path
         id="path14"
         d="m 8157.25,4074.12 v -248.15 c 0,-41.71 10.86,-73.56 32.59,-95.59 21.73,-22.02 52.27,-33.03 91.62,-33.03 39.94,0 70.77,11.01 92.5,33.03 21.71,22.03 32.59,53.88 32.59,95.59 v 248.15 h 124.22 v -247.28 c 0,-52.27 -11.32,-96.46 -33.91,-132.58 -22.62,-36.12 -52.86,-63.29 -90.75,-81.48 -37.88,-18.22 -80.02,-27.32 -126.4,-27.32 -45.82,0 -87.38,9.1 -124.67,27.32 -37.31,18.19 -66.82,45.36 -88.53,81.48 -21.73,36.12 -32.59,80.31 -32.59,132.58 v 247.28 h 123.33"
         style="fill:#80cc28;fill-opacity:1;fill-rule:nonzero;stroke:none"
         transform="matrix(0.13333333,0,0,-0.13333333,0,928.10667)" />
      <path
         id="path15"
         d="m 8586.72,3585.46 v 407.06 c 0,41.71 -10.86,73.56 -32.6,95.58 -21.73,22.03 -52.27,33.04 -91.62,33.04 -39.93,0 -70.76,-11.01 -92.5,-33.04 -21.71,-22.02 -32.59,-53.87 -32.59,-95.58 v -248.15 h -124.22 v 247.27 c 0,52.27 11.31,96.46 33.92,132.58 22.62,36.12 52.85,63.3 90.74,81.49 37.87,18.21 80.02,27.31 126.41,27.31 45.82,0 87.36,-9.1 124.66,-27.31 37.31,-18.19 66.81,-45.37 88.53,-81.49 21.74,-36.12 32.6,-80.31 32.6,-132.58 v -406.18 h -123.33"
         style="fill:#80cc28;fill-opacity:1;fill-rule:nonzero;stroke:none"
         transform="matrix(0.13333333,0,0,-0.13333333,0,928.10667)" />
      <path
         id="path16"
         d="m 8033.89,4171.35 c 0,-34.07 27.61,-61.68 61.68,-61.68 34.06,0 61.68,27.61 61.68,61.68 0,34.06 -27.62,61.67 -61.68,61.67 -34.07,0 -61.68,-27.61 -61.68,-61.67"
         style="fill:#80cc28;fill-opacity:1;fill-rule:nonzero;stroke:none"
         transform="matrix(0.13333333,0,0,-0.13333333,0,928.10667)" />
      <text
         id="text16"
         xml:space="preserve"
         transform="matrix(1.3333333,0,0,1.3333333,539.50667,524.91733)"><tspan
           id="tspan16"
           style="font-variant:normal;font-weight:600;font-size:28.2009px;font-family:Poppins-SemiBold;writing-mode:lr-tb;fill:#797a7a;fill-opacity:1;fill-rule:nonzero;stroke:none"
           x="0"
           dx="0 7.3320365 7.3318391 7.3320928 7.3319802 7.331501 7.3315854 7.3325725 7.3320365 7.331924 7.3320928 7.3318958 7.3315291 7.3325725 7.3321214 7.3315291 7.3320928 7.3315291 7.3320365 7.3321214 7.3322339 7.3316417 7.3329954 7.3320365"
           y="0">AUTOMATIC GATES SOLUTION</tspan></text>
      <path
         id="path17"
         d="m 6666.98,3994.39 381.13,-451.72 402.6,647.54 -413.48,-348.49 -137.98,157.36 -232.27,-4.69"
         style="fill:#80cc28;fill-opacity:1;fill-rule:nonzero;stroke:none"
         transform="matrix(0.13333333,0,0,-0.13333333,0,928.10667)" />
      <path
         id="path18"
         d="M 7029.99,3517.5 6917.2,3332.21 h -187.34 l 193.91,311.15 106.22,-125.86"
         style="fill:#3c3b3d;fill-opacity:1;fill-rule:nonzero;stroke:none"
         transform="matrix(0.13333333,0,0,-0.13333333,0,928.10667)" />
      <path
         id="path19"
         d="m 3106.27,2339.23 c -14.25,-40.55 -58.48,-61.7 -99.02,-47.44 -40.38,14.26 -61.69,58.5 -47.44,99.03 14.26,40.38 58.66,61.7 99.03,47.43 40.55,-14.25 61.71,-58.64 47.43,-99.02 z m -58.96,-167.46 c -14.26,-40.39 -58.5,-61.7 -99.03,-47.43 -40.39,14.26 -61.7,58.65 -47.43,99.03 14.26,40.54 58.65,61.7 99.03,47.43 40.54,-14.26 61.69,-58.65 47.43,-99.03 z m -155.75,54.97 c -14.28,-40.55 -58.66,-61.7 -99.05,-47.44 -40.53,14.11 -61.69,58.49 -47.43,99.03 14.27,40.38 58.66,61.7 99.04,47.43 40.38,-14.25 61.69,-58.64 47.44,-99.02 z m -196.63,63.93 c -2.4,0 -4.81,0.49 -7.21,1.29 -11.21,4 -16.99,16.18 -13.14,27.56 l 48.72,138.29 c 3.2,8.81 11.53,14.42 20.34,14.42 2.41,0 4.81,-0.48 7.21,-1.28 11.22,-4.01 17.16,-16.19 13.15,-27.56 l -48.72,-138.29 c -3.21,-8.82 -11.37,-14.43 -20.35,-14.43 z m 109.13,154.96 c 14.26,40.54 58.65,61.69 99.03,47.43 40.55,-14.1 61.69,-58.49 47.43,-99.03 -14.26,-40.38 -58.65,-61.69 -99.03,-47.43 -40.39,14.26 -61.7,58.65 -47.43,99.03 z m 355.42,12.01 -313.12,110.42 c -78.04,27.4 -163.46,-13.46 -190.85,-91.34 l -45.67,-129.48 c -27.4,-77.88 13.46,-163.29 91.5,-190.7 l 313.12,-110.4 c 77.89,-27.4 163.28,13.46 190.69,91.33 l 45.67,129.49 c 27.41,77.87 -13.45,163.28 -91.34,190.68"
         style="fill:#3c3b3d;fill-opacity:1;fill-rule:nonzero;stroke:none"
         transform="matrix(0.13333333,0,0,-0.13333333,0,928.10667)" />
      <path
         id="path20"
         d="m 4496.41,3860.93 c -18.26,23.55 -39.89,41.5 -64.9,53.83 -24.99,12.34 -57.52,25.33 -97.58,38.78 -40.07,12.99 -69.39,25 -88.3,36.22 -18.75,11.22 -28.19,26.76 -28.19,46.8 0,18.26 5.6,32.2 16.82,41.98 11.05,9.61 25.79,14.58 44.07,14.58 21.14,0 38.62,-5.77 52.08,-17.3 13.61,-11.39 20.83,-27.25 22.1,-47.12 h 163.29 c -2.88,58.17 -25.31,103.68 -67.14,136.37 -41.67,32.69 -96.78,48.87 -165.05,48.87 -66.99,0 -121.46,-16.18 -163.29,-48.87 -41.83,-32.69 -62.66,-77.87 -62.66,-135.56 0,-38.78 9.14,-70.36 27.4,-94.39 18.1,-24.2 39.91,-42.47 65.22,-54.8 25.33,-12.34 58.02,-24.69 98.07,-37.03 27.56,-8.33 49.03,-15.7 63.95,-22.1 15.05,-6.42 27.71,-14.75 37.98,-24.68 10.25,-10.1 15.54,-22.76 15.54,-37.99 0,-18.26 -6.57,-32.52 -19.55,-42.78 -12.83,-10.41 -30.61,-15.55 -52.89,-15.55 -21.78,0 -39.42,6.1 -53.03,18.12 -13.47,12.02 -21.48,29.64 -23.73,52.55 H 4055.9 c 1.12,-40.53 12.49,-75.31 33.98,-104.16 21.47,-28.84 50.15,-50.64 86.04,-65.38 35.9,-14.74 76.44,-22.11 121.79,-22.11 46.46,0 86.86,8.65 120.99,25.64 34.13,17.15 60.25,40.07 78.19,68.9 17.95,28.86 26.92,60.9 26.92,96.15 0,37.18 -9.12,67.47 -27.4,91.03"
         style="fill:#3c3b3d;fill-opacity:1;fill-rule:nonzero;stroke:none"
         transform="matrix(0.13333333,0,0,-0.13333333,0,928.10667)" />
      <path
         id="path21"
         d="m 4810.66,3811.41 75.96,226.9 76.75,-226.9 z m 164.25,393.73 h -174.83 l -224.19,-619.68 h 158.01 l 37.02,109.45 h 231.39 l 37.03,-109.45 h 159.76 l -224.19,619.68"
         style="fill:#3c3b3d;fill-opacity:1;fill-rule:nonzero;stroke:none"
         transform="matrix(0.13333333,0,0,-0.13333333,0,928.10667)" />
      <path
         id="path22"
         d="m 5670.54,4084.31 v 120.83 H 5267.05 V 3585.46 H 5418 v 250.79 h 188.92 v 117.29 H 5418 v 130.77 h 252.54"
         style="fill:#3c3b3d;fill-opacity:1;fill-rule:nonzero;stroke:none"
         transform="matrix(0.13333333,0,0,-0.13333333,0,928.10667)" />
      <path
         id="path23"
         d="m 6129.48,4084.31 v 120.83 h -379.46 v -619.68 h 379.46 v 120.98 h -228.51 v 135.89 h 202.08 v 116.5 h -202.08 v 125.48 h 228.51"
         style="fill:#3c3b3d;fill-opacity:1;fill-rule:nonzero;stroke:none"
         transform="matrix(0.13333333,0,0,-0.13333333,0,928.10667)" />
      <path
         id="path24"
         d="m 6194.06,4205.14 v -120.83 h 164.09 v -498.85 h 150.96 v 498.85 h 164.25 v 120.83 h -479.3"
         style="fill:#3c3b3d;fill-opacity:1;fill-rule:nonzero;stroke:none"
         transform="matrix(0.13333333,0,0,-0.13333333,0,928.10667)" />
      <path
         id="path25"
         d="m 7775.85,3701.96 v 503.18 H 7624.9 v -619.68 h 348.69 v 116.5 h -197.74"
         style="fill:#3c3b3d;fill-opacity:1;fill-rule:nonzero;stroke:none"
         transform="matrix(0.13333333,0,0,-0.13333333,0,928.10667)" />
      <path
         id="path26"
         d="m 9088.92,3901.46 240.04,303.68 H 9151.55 L 8945,3933.36 v 271.78 H 8794.05 V 3585.46 H 8945 v 273.7 l 208.32,-273.7 h 184.44 l -248.84,316"
         style="fill:#3c3b3d;fill-opacity:1;fill-rule:nonzero;stroke:none"
         transform="matrix(0.13333333,0,0,-0.13333333,0,928.10667)" />
      <path
         id="path27"
         d="m 9832.13,3860.93 c -18.27,23.55 -39.9,41.5 -64.91,53.83 -24.99,12.34 -57.52,25.33 -97.42,38.78 -40.05,12.99 -69.56,25 -88.31,36.22 -18.9,11.22 -28.35,26.76 -28.35,46.8 0,18.26 5.6,32.2 16.82,41.98 11.22,9.61 25.97,14.58 44.23,14.58 21.15,0 38.47,-5.77 52.08,-17.3 13.46,-11.39 20.83,-27.25 21.95,-47.12 h 163.3 c -2.9,58.17 -25.32,103.68 -67,136.37 -41.81,32.69 -96.79,48.87 -165.05,48.87 -67.13,0 -121.62,-16.18 -163.44,-48.87 -41.66,-32.69 -62.65,-77.87 -62.65,-135.56 0,-38.78 9.12,-70.36 27.4,-94.39 18.26,-24.2 40.06,-42.47 65.38,-54.8 25.3,-12.34 57.84,-24.69 97.9,-37.03 27.74,-8.33 49.05,-15.7 64.1,-22.1 14.9,-6.42 27.56,-14.75 37.98,-24.68 10.25,-10.1 15.38,-22.76 15.38,-37.99 0,-18.26 -6.57,-32.52 -19.38,-42.78 -12.98,-10.41 -30.62,-15.55 -53.04,-15.55 -21.8,0 -39.42,6.1 -52.89,18.12 -13.62,12.02 -21.47,29.64 -23.87,52.55 h -160.73 c 1.28,-40.53 12.5,-75.31 33.98,-104.16 21.46,-28.84 50.15,-50.64 86.05,-65.38 35.88,-14.74 76.58,-22.11 121.93,-22.11 46.48,0 86.7,8.65 120.83,25.64 34.14,17.15 60.27,40.07 78.2,68.9 17.95,28.86 26.93,60.9 26.93,96.15 0,37.18 -9.14,67.47 -27.4,91.03"
         style="fill:#3c3b3d;fill-opacity:1;fill-rule:nonzero;stroke:none"
         transform="matrix(0.13333333,0,0,-0.13333333,0,928.10667)" />
    </g>
  </g>
</svg>
